<svg id="Layer_1" data-name="Layer 1" xmlns="http://www.w3.org/2000/svg" xmlns:xlink="http://www.w3.org/1999/xlink" viewBox="0 0 383.4 53.59"><defs><style>.cls-1{fill:none;}.cls-2{clip-path:url(#clip-path);}.cls-3{fill:#7fcbae;}</style><clipPath id="clip-path" transform="translate(-8 -8.41)"><rect class="cls-1" x="8" y="8.41" width="383.39" height="53.59"/></clipPath></defs><title>SODO Track Logo Text Color</title><g class="cls-2"><path class="cls-3" d="M8.21,10.41c0-.74,1.87-1.1,3.26-1.36a21.65,21.65,0,0,1,3.8-.27c.71,0,1.51,0,1.81.95,0,0,.25.62-1.77.62-1.19,0-1.45.07-1.6.32-.32.54-3.07,4.23-3.69,5.21a1.75,1.75,0,0,1-1.54,1c-.59,0-.65-1-.06-1.81s1.66-2.92,3.14-4.05c.67-.58-.1-.34-1.25-.27s-1.88.3-2.11-.34" transform="translate(-8 -8.41)"/><path class="cls-3" d="M14.07,16.73c-.7-.65-1-.53-.29-1.51a43,43,0,0,1,4.69-5.56c1.45-1.27,2-.91,1.47-.24s-1.25,1.76-1.36,1.94c-.44.76-.44.76.32,1s1.33.5,1.68,0c.2-.28,1.83-2.22,2.38-2.85s.73-.81,1.09-.74.51.32.18.87-3.72,5.63-4.41,6.66-1,1-1.27.54-.69-.56-.09-1.34.93-1.2,1.07-1.36.27-.51-.64-.71a3,3,0,0,0-1.63-.13,2.07,2.07,0,0,0-.91.87A22.51,22.51,0,0,0,15,16.47c-.25.54-.4.7-.89.27" transform="translate(-8 -8.41)"/><path class="cls-3" d="M31.17,10.64a1.53,1.53,0,0,0,1-1c.16-.73,0-.85-.49-.86s-2.29.1-2.89.1-1.08.11-1.13.24c-.13.36-.95,1-1.43,1.58S24.91,12.15,24.33,13s-1.44,1.58-1.47,2.54.2,1,1,1c1,0,3.44,0,4.07,0s.59-.19.86-.69.06-.65-1.25-.56-2.2.09-2.43-.18-.24-.65.3-1.4.71-.83,1.57-.82a19.55,19.55,0,0,0,2.64,0c.56-.1.53-.71.5-.93s-1-.14-2-.18c-.69,0-1.25-.3-.68-.86s.86-.83.86-.83a14.09,14.09,0,0,1,2.28,0c.44.08.65.12.53.33s-.2.45.08.32" transform="translate(-8 -8.41)"/><path class="cls-3" d="M55.92,15c1.23-.73,1-2.73-.12-3.71a8.78,8.78,0,0,0-7.33-2.88C43.9,8.6,39,12.33,39.1,17s2.88,7.09,6.56,8.52,8.1,3.12,8,7.15a5.13,5.13,0,0,1-5,5.4c-1.07,0-4.4-.61-5.73-3.56-1.25-2.79-2.94-2.17-3.35-2s-1.87.77-1.28,3.09a10.17,10.17,0,0,0,7.63,6.56c4,.62,7.3-.27,9.5-2.55A10.15,10.15,0,0,0,58.59,32a9.23,9.23,0,0,0-3.65-7.48c-2.52-1.9-8.4-3.18-9.91-5a3.73,3.73,0,0,1,.74-5.55c1.81-1.25,4.18-1.48,5.73-.33S54,16.16,55.92,15" transform="translate(-8 -8.41)"/><path class="cls-3" d="M85.12,57.15A12.36,12.36,0,1,1,97.23,44.8,12.23,12.23,0,0,1,85.12,57.15m0-29.56A17.21,17.21,0,1,0,102,44.8a17,17,0,0,0-16.85-17.2" transform="translate(-8 -8.41)"/><path class="cls-3" d="M132.71,34.2a11.46,11.46,0,0,1-8.19,3c-4.15,0-4.09-2.26-4.09-4.16V17.41a3.29,3.29,0,0,1,3.56-3.5c2.79,0,7.32.89,9.61,3.71,1.79,2.22,2.74,4.54,2.74,8.75a11,11,0,0,1-3.62,7.83m7.36-15.79c-1.6-4.33-5.7-7-9.2-8.31s-9-1.13-12-1.13-3.26,2.25-3.26,4.39V39.13c0,2.85,2.37,2.79,3.5,2.85s1.25,0,4.87,0a17.37,17.37,0,0,0,10.8-3.21,14.24,14.24,0,0,0,5.87-8.13,22.49,22.49,0,0,0-.53-12.23" transform="translate(-8 -8.41)"/><path class="cls-3" d="M167.87,57.13A12.36,12.36,0,1,1,180,44.77a12.23,12.23,0,0,1-12.11,12.36m0-29.56a17.21,17.21,0,1,0,16.85,17.2,17,17,0,0,0-16.85-17.2" transform="translate(-8 -8.41)"/><path class="cls-3" d="M227.37,11.53C227.37,9.4,229,9,230.75,9S243.69,9,245,9s2.37.77,2.37,2.55-1.25,2-2.14,2H241c-.41,0-.89.42-.89,1.19S240,37.94,240,39s-.42,2.55-2,2.61S234.85,41,234.85,39s-.06-23.32-.06-24-.18-1.48-1.19-1.48-2.61.06-3.8.06a2.23,2.23,0,0,1-2.43-2.08" transform="translate(-8 -8.41)"/><path class="cls-3" d="M262.38,43a2.2,2.2,0,0,1-1-1.9V35.63c0-1.6,1.36-2.37,3.21-2.37s4.09.89,4.75,2,1.19,4.09.42,5.52a5.61,5.61,0,0,1-3.5,2.73c-1.3.3-3,.24-3.86-.47M268.91,49c-1.48-1.78.53-2.14,2.25-3.09s3.86-4,3.86-7.71a9.21,9.21,0,0,0-4.39-8.07c-2.55-1.6-8.07-1.48-10.8-1.48s-3.09,2.14-3.09,3.92-.06,25.34-.06,26.77a2.35,2.35,0,0,0,2.55,2.08,2.2,2.2,0,0,0,2.26-2.2v-9.5c0-.89.3-1,.71-1.13s.89.36,1.31,1,6.23,9.08,7.06,10.15a2.5,2.5,0,0,0,3.5.3,2.59,2.59,0,0,0,.42-3.5c-.71-1-4.09-5.76-5.58-7.54" transform="translate(-8 -8.41)"/><path class="cls-3" d="M306.18,28.21c-1.54,0-5.34,0-6.41,0s-1.66-.24-1.25-1.66,2.37-5.4,2.79-6.47a1.7,1.7,0,0,1,3.2,0c.83,2,2.43,5.52,2.79,6.53s.47,1.63-1.13,1.6m10.39,8.55c-.53-1.31-9-21.72-10-24.21S304.16,9,303,9s-2.73,1.36-3.62,3.5-9.44,22.19-10.21,24.15-1.31,3.92.42,4.63c1.3.53,2.61.41,3.14-.83s1.54-3.68,2.31-5.64,2-2,4.09-2,4.93-.06,7.71-.06c3.26,0,3.38,1,3.8,2.14a54,54,0,0,0,2.31,5.64,2.39,2.39,0,0,0,3.62.71c1.31-1,.53-3.26,0-4.57" transform="translate(-8 -8.41)"/><path class="cls-3" d="M351.17,32.72c.65-1.57.59-2.49-.83-3.5s-8.07-3.08-13.18-1a17.79,17.79,0,0,0-11,12,17.47,17.47,0,0,0,4.27,16.5c3.74,4,9.08,5,13.06,4.87a15.37,15.37,0,0,0,7-1.9,2.25,2.25,0,1,0-2.2-3.92,12.16,12.16,0,0,1-8.55.89,12.35,12.35,0,0,1-9.26-11.57A12.71,12.71,0,0,1,338.17,33c3.86-1.54,7.89-1,9.43.06s3.15.69,3.56-.3" transform="translate(-8 -8.41)"/><path class="cls-3" d="M364.87,39.43v-27c0-2.49,1.13-3.26,2.31-3.26s2.43.65,2.49,3,0,6.59,0,7.6.47,1.78,1.31.95,9.32-9.56,10.38-10.56a2.92,2.92,0,0,1,3.5-.36,2.46,2.46,0,0,1,0,3.38c-1.07,1.07-8.72,8.72-9.32,9.38s-1.42,1.66.06,3.32,9.12,10.92,9.93,11.81a2.57,2.57,0,0,1-.26,3.56,2.29,2.29,0,0,1-3.44,0c-.89-1-9-11.22-9.73-12s-1.13-1.48-1.72-1.13a2.17,2.17,0,0,0-.71,1.78c0,.47-.06,8-.06,9.26a2.3,2.3,0,0,1-2.31,2.55,2.16,2.16,0,0,1-2.43-2.31" transform="translate(-8 -8.41)"/><path class="cls-3" d="M93.66,46.49H76.93a.71.71,0,1,1,0-1.42H93.66a.71.71,0,0,1,0,1.42" transform="translate(-8 -8.41)"/><path class="cls-3" d="M146.9,46.49H105.71a.71.71,0,0,1,0-1.42H146.9a.71.71,0,0,1,0,1.42" transform="translate(-8 -8.41)"/><path class="cls-3" d="M176.09,46.49H159.3a.71.71,0,1,1,0-1.42h16.79a.71.71,0,1,1,0,1.42" transform="translate(-8 -8.41)"/><path class="cls-3" d="M252.35,46.49h-63.8a.71.71,0,1,1,0-1.42h63.8a.71.71,0,1,1,0,1.42" transform="translate(-8 -8.41)"/><path class="cls-3" d="M321.61,46.49H275.74a.71.71,0,1,1,0-1.42h45.87a.71.71,0,1,1,0,1.42" transform="translate(-8 -8.41)"/><path class="cls-3" d="M150.81,58.42H101.73a.71.71,0,1,1,0-1.42h49.08a.71.71,0,1,1,0,1.42" transform="translate(-8 -8.41)"/><path class="cls-3" d="M252.71,58.42H185.06a.71.71,0,1,1,0-1.42h67.65a.71.71,0,0,1,0,1.42" transform="translate(-8 -8.41)"/><path class="cls-3" d="M265.66,58.42h-1.25a.71.71,0,0,1,0-1.42h1.25a.71.71,0,1,1,0,1.42" transform="translate(-8 -8.41)"/><path class="cls-3" d="M325.71,58.42H279.37a.71.71,0,1,1,0-1.42h46.33a.71.71,0,1,1,0,1.42" transform="translate(-8 -8.41)"/><path class="cls-3" d="M64.17,45.06,46.11,45l-9.38.05a.71.71,0,0,0-.71.72.7.7,0,0,0,.59.68H64.17a.71.71,0,1,0,0-1.42" transform="translate(-8 -8.41)"/><path class="cls-3" d="M68.5,57H40.76l-3.93,0a.71.71,0,0,0-.71.72.7.7,0,0,0,.6.69H68.5a.71.71,0,1,0,0-1.42" transform="translate(-8 -8.41)"/><path class="cls-3" d="M380.85,46.44l9.71-.07a.71.71,0,0,0,0-1.42h-9.71l-47.2.13a.71.71,0,0,0,0,1.42h0Z" transform="translate(-8 -8.41)"/><path class="cls-3" d="M390.69,58.36A.71.71,0,0,0,391,57H355.26a.71.71,0,1,0,0,1.42h27.86Z" transform="translate(-8 -8.41)"/></g></svg>